<svg width="17" height="17" viewBox="0 0 17 17" fill="none" xmlns="http://www.w3.org/2000/svg">
<g style="mix-blend-mode:plus-darker">
<path d="M0 6.62402C0 5.71094 0.171549 4.85596 0.514648 4.05908C0.857747 3.25667 1.33366 2.55111 1.94238 1.94238C2.55111 1.33366 3.25391 0.857747 4.05078 0.514648C4.85319 0.171549 5.71094 0 6.62402 0C7.53711 0 8.39209 0.171549 9.18896 0.514648C9.99137 0.857747 10.6969 1.33366 11.3057 1.94238C11.9144 2.55111 12.3903 3.25667 12.7334 4.05908C13.0765 4.85596 13.248 5.71094 13.248 6.62402C13.248 7.38216 13.1263 8.10156 12.8828 8.78223C12.6449 9.46289 12.3128 10.0799 11.8867 10.6333L15.9458 14.7173C16.0343 14.8058 16.1007 14.9082 16.145 15.0244C16.1948 15.1406 16.2197 15.2651 16.2197 15.3979C16.2197 15.5806 16.1782 15.7466 16.0952 15.896C16.0177 16.0454 15.9071 16.1616 15.7632 16.2446C15.6193 16.3332 15.4533 16.3774 15.2651 16.3774C15.1323 16.3774 15.005 16.3525 14.8833 16.3027C14.7671 16.2585 14.6592 16.1893 14.5596 16.0952L10.4756 12.0029C9.93327 12.3903 9.33561 12.6947 8.68262 12.916C8.02962 13.1374 7.34342 13.248 6.62402 13.248C5.71094 13.248 4.85319 13.0765 4.05078 12.7334C3.25391 12.3903 2.55111 11.9144 1.94238 11.3057C1.33366 10.6969 0.857747 9.99414 0.514648 9.19727C0.171549 8.39486 0 7.53711 0 6.62402ZM1.41943 6.62402C1.41943 7.34342 1.55225 8.01855 1.81787 8.64941C2.08903 9.27474 2.46257 9.82536 2.93848 10.3013C3.41992 10.7772 3.97331 11.1507 4.59863 11.4219C5.22949 11.693 5.90462 11.8286 6.62402 11.8286C7.34342 11.8286 8.01579 11.693 8.64111 11.4219C9.27197 11.1507 9.82536 10.7772 10.3013 10.3013C10.7772 9.82536 11.1507 9.27474 11.4219 8.64941C11.693 8.01855 11.8286 7.34342 11.8286 6.62402C11.8286 5.90462 11.693 5.23226 11.4219 4.60693C11.1507 3.97607 10.7772 3.42269 10.3013 2.94678C9.82536 2.46533 9.27197 2.0918 8.64111 1.82617C8.01579 1.55501 7.34342 1.41943 6.62402 1.41943C5.90462 1.41943 5.22949 1.55501 4.59863 1.82617C3.97331 2.0918 3.41992 2.46533 2.93848 2.94678C2.46257 3.42269 2.08903 3.97607 1.81787 4.60693C1.55225 5.23226 1.41943 5.90462 1.41943 6.62402Z" fill="#5A5A5A"/>
</g>
</svg>
