<svg width="40" height="40" viewBox="0 0 40 40" fill="none" xmlns="http://www.w3.org/2000/svg">
<path d="M22.8833 35C22.5903 35.5051 22.1697 35.9244 21.6637 36.2159C21.1577 36.5073 20.584 36.6608 20 36.6608C19.416 36.6608 18.8423 36.5073 18.3363 36.2159C17.8303 35.9244 17.4097 35.5051 17.1167 35M30 13.3333C30 10.6812 28.9464 8.13762 27.0711 6.26226C25.1957 4.3869 22.6522 3.33333 20 3.33333C17.3478 3.33333 14.8043 4.3869 12.9289 6.26226C11.0536 8.13762 10 10.6812 10 13.3333C10 25 5 28.3333 5 28.3333H35C35 28.3333 30 25 30 13.3333Z" stroke="#F3F3F3" stroke-width="3.5" stroke-linecap="round" stroke-linejoin="round"/>
</svg>
