<svg width="40" height="40" viewBox="0 0 40 40" fill="none" xmlns="http://www.w3.org/2000/svg">
<g filter="url(#filter0_i_250_290)">
<path d="M5 9.99999H8.33333M8.33333 9.99999H35M8.33333 9.99999L8.33333 33.3333C8.33333 34.2174 8.68452 35.0652 9.30964 35.6903C9.93477 36.3155 10.7826 36.6667 11.6667 36.6667H28.3333C29.2174 36.6667 30.0652 36.3155 30.6904 35.6903C31.3155 35.0652 31.6667 34.2174 31.6667 33.3333V9.99999M13.3333 9.99999V6.66666C13.3333 5.78261 13.6845 4.93476 14.3096 4.30964C14.9348 3.68452 15.7826 3.33333 16.6667 3.33333H23.3333C24.2174 3.33333 25.0652 3.68452 25.6904 4.30964C26.3155 4.93476 26.6667 5.78261 26.6667 6.66666V9.99999M16.6667 18.3333V28.3333M23.3333 18.3333V28.3333" stroke="#1E1E1E" stroke-width="3.5" stroke-linecap="round" stroke-linejoin="round"/>
</g>
<defs>
<filter id="filter0_i_250_290" x="0" y="0" width="40" height="44" filterUnits="userSpaceOnUse" color-interpolation-filters="sRGB">
<feFlood flood-opacity="0" result="BackgroundImageFix"/>
<feBlend mode="normal" in="SourceGraphic" in2="BackgroundImageFix" result="shape"/>
<feColorMatrix in="SourceAlpha" type="matrix" values="0 0 0 0 0 0 0 0 0 0 0 0 0 0 0 0 0 0 127 0" result="hardAlpha"/>
<feOffset dy="4"/>
<feGaussianBlur stdDeviation="2"/>
<feComposite in2="hardAlpha" operator="arithmetic" k2="-1" k3="1"/>
<feColorMatrix type="matrix" values="0 0 0 0 0 0 0 0 0 0 0 0 0 0 0 0 0 0 0.25 0"/>
<feBlend mode="normal" in2="shape" result="effect1_innerShadow_250_290"/>
</filter>
</defs>
</svg>
